<svg width="31" height="50" viewBox="0 0 31 50" fill="none" xmlns="http://www.w3.org/2000/svg">
<g clip-path="url(#clip0_221_41)">
<path d="M30.9999 6.20666V23.8019L26.8666 24.9298L24.7999 25.4941L23.7308 25.7861L23.3002 25.9033L20.6666 26.6227L16.5333 27.7513L15.3153 28.0833H15.3146L12.3999 28.8792V35.0199L8.48911 32.7192L8.2666 32.5886V16.4091L12.3999 15.2826V24.5199L15.3153 23.724H15.3167L16.5333 23.3927L20.6666 22.2655L23.1996 21.5749L23.3064 21.5454L24.7999 21.1383L26.8666 20.5747V9.43808L25.0459 8.94115L24.7999 8.87377L24.2626 8.72708L24.2516 8.72428L22.2944 8.19015H22.2938L20.6666 7.74587L20.4014 7.67287H20.4007L20.3924 7.67077L18.4332 7.13594L16.5333 6.61725L12.4075 5.49075L12.3999 5.48864V8.78113L11.8123 8.94115L10.4435 9.31455L8.2666 9.90833V0L10.1652 0.518684L12.3999 1.12861V1.13282L12.4075 1.13072L16.5333 2.25722L20.3931 3.31073L20.6666 3.38583L24.7999 4.51374L25.5908 4.72992L26.423 4.95733L26.8666 5.07805L28.3773 5.49075L28.3904 5.49426L30.2835 6.01154H30.2842L30.9999 6.20666Z" fill="white"/>
<path d="M12.3999 42.3173V50L8.2666 47.5687V39.886L11.37 41.7116L12.3999 42.3173Z" fill="white"/>
<path d="M24.8 13.2338V20.0644L21.3383 21.0085L20.6667 21.1917V16.4652L20.3918 16.3901L16.5333 15.3366L14.3682 14.7457L14.364 14.7443H14.3633L12.4069 14.2101L12.4007 14.2087H12.3993L8.26667 15.3359L4.41164 16.3873H4.41096L4.13333 16.4624V31.373L5.11293 31.9493L5.11569 31.9507L7.07696 33.1045H7.07764L8.26667 33.8043L12.3938 36.2321H12.3952L12.4 36.2356V36.2286L13.4271 35.6243L16.5333 33.7973L17.7196 33.0996L20.6667 31.366V27.7078L24.8 26.5806V33.8113L23.3816 34.6459L20.6667 36.2426L19.1539 37.1326L17.5729 38.0626L16.5437 38.6683L16.5333 38.662V38.6739L12.4034 41.1038L12.4 41.1017L8.26667 38.6704V38.6599L8.25771 38.6655L5.65233 37.1326L4.13333 36.2391V36.2447L1.42049 34.6487L0 33.8134V13.238L0.312756 13.1524L4.13333 12.1094L4.42267 12.0308H4.42336L5.56553 11.7185L5.59102 11.7115L5.69711 11.6827L8.26667 10.9822V10.9815L12.4 9.85501L12.4117 9.8515L14.3048 10.3688L16.2667 10.9043L16.2729 10.9057L16.5333 10.9766L20.389 12.0301H20.3932L20.6667 12.1052L22.3489 12.5642H22.3496L22.3579 12.567L24.5024 13.1524L24.8 13.2338Z" fill="white"/>
</g>
<defs>
<clipPath id="clip0_221_41">
<rect width="31" height="50" fill="white"/>
</clipPath>
</defs>
</svg>
