<svg width="66" height="66" viewBox="0 0 66 66" fill="none" xmlns="http://www.w3.org/2000/svg">
<g id="&#240;&#159;&#166;&#134; icon &#34;security safe&#34;">
<g id="Group">
<path id="Vector" d="M62.9663 30.3512C62.9663 45.0285 51.0202 58.7754 34.6994 62.7974C33.5889 63.0675 32.3775 63.0675 31.267 62.7974C14.9461 58.7754 3 45.0285 3 30.3512V17.1745C3 14.7132 5.0864 11.9219 7.67754 10.9914L26.4213 4.14807C30.6276 2.61731 35.3724 2.61731 39.5788 4.14807L58.3225 10.9914C60.88 11.9219 63 14.7132 63 17.1745L62.9663 30.3512Z" stroke="#A80000" stroke-opacity="0.5" stroke-width="5" stroke-linecap="round" stroke-linejoin="round"/>
<g id="Group_2">
<path id="Vector_2" d="M32.9831 34.4931C36.7002 34.4931 39.7134 31.8055 39.7134 28.4901C39.7134 25.1747 36.7002 22.4871 32.9831 22.4871C29.266 22.4871 26.2529 25.1747 26.2529 28.4901C26.2529 31.8055 29.266 34.4931 32.9831 34.4931Z" stroke="#A80000" stroke-opacity="0.5" stroke-width="5" stroke-miterlimit="10" stroke-linecap="round" stroke-linejoin="round"/>
<path id="Vector_3" d="M32.9839 34.493V43.4975" stroke="#A80000" stroke-opacity="0.5" stroke-width="5" stroke-miterlimit="10" stroke-linecap="round" stroke-linejoin="round"/>
</g>
</g>
</g>
</svg>
